<svg xmlns="http://www.w3.org/2000/svg" viewBox="0 0 25.26 29.23"><defs><style>.cls-1{fill:#333;}</style></defs><title>Movie</title><g id="Layer_2" data-name="Layer 2"><g id="Layer_1-2" data-name="Layer 1"><g id="_Group_" data-name="&lt;Group&gt;"><path id="_Compound_Path_" data-name="&lt;Compound Path&gt;" class="cls-1" d="M15.78,8h7.35a1.87,1.87,0,0,1,2,2q0,3.82,0,7.64,0,4.84,0,9.67a1.81,1.81,0,0,1-1.93,1.92H1.93A1.94,1.94,0,0,1,0,27.1C0,24.56,0,22,0,19.49,0,15.7,0,11.91,0,8.13A4.58,4.58,0,0,1,.19,6.88,1.51,1.51,0,0,1,1.32,5.82L20,.59c.72-.2,1.43-.39,2.16-.55A1,1,0,0,1,23.3.51c.59,1,1.19,2,1.71,3s.31,1.33-.63,1.74a24.47,24.47,0,0,1-2.54.88C19.9,6.75,18,7.32,16,7.9L15.77,8ZM2.4,13.32v13H22.65v-13Zm17.12-1h0a2.49,2.49,0,0,1,.38,0,1.1,1.1,0,0,0,1.24-.77c.21-.46.42-.91.62-1.37s0-.69-.45-.71c-.28,0-.56,0-.84,0a1.31,1.31,0,0,0-1.34.83c-.2.4-.39.8-.57,1.21a1.52,1.52,0,0,0-.12.42.32.32,0,0,0,.35.41Zm-5.12,0c.9.21,1.32-.33,1.63-1,.14-.33.29-.65.43-1,.21-.49,0-.79-.51-.81-.29,0-.58,0-.87,0a1.07,1.07,0,0,0-1,.54,13.41,13.41,0,0,0-.75,1.53.55.55,0,0,0,.55.78Zm-5.31,0c.92.17,1.39-.35,1.7-1.11.12-.29.26-.58.38-.88.23-.53,0-.84-.54-.86-.27,0-.54,0-.81,0a1.05,1.05,0,0,0-1,.55A14.19,14.19,0,0,0,8,11.53c-.18.43.08.77.55.79Zm.44-7.16c-.25.06-.63.14-1,.25s-.59.51-.26.9A7.68,7.68,0,0,0,9,7.14a2.56,2.56,0,0,0,.78.47c.53.2,1-.08,1.52-.21s.58-.49.26-.88-.49-.57-.74-.85A1.59,1.59,0,0,0,9.53,5.16ZM14.6,3.8c-.3.08-.74.18-1.17.33a.4.4,0,0,0-.21.64A12.76,12.76,0,0,0,14.37,6a.9.9,0,0,0,.61.23,7.41,7.41,0,0,0,1.33-.21c.57-.14.67-.5.28-1l-.69-.79A1.64,1.64,0,0,0,14.6,3.8ZM20.32,5a1.61,1.61,0,0,0,.25,0c.31-.08.62-.15.92-.24a.49.49,0,0,0,.24-.85,8.34,8.34,0,0,0-.83-.93,2.08,2.08,0,0,0-.75-.41,2.64,2.64,0,0,0-1.49.23c-.46.12-.56.47-.27.84s.49.57.74.86A1.51,1.51,0,0,0,20.32,5ZM2.89,9.21a1.18,1.18,0,0,0,1.19,1.2,1.22,1.22,0,0,0,1.2-1.2A1.2,1.2,0,0,0,4.08,8,1.17,1.17,0,0,0,2.89,9.21Z" transform="translate(0)"/></g></g></g></svg>