<svg xmlns="http://www.w3.org/2000/svg" viewBox="0 0 27.84 26.63"><defs><style>.cls-1{fill:#333;}</style></defs><title>Other</title><g id="Layer_2" data-name="Layer 2"><g id="Layer_1-2" data-name="Layer 1"><g id="_Group_" data-name="&lt;Group&gt;"><path id="_Path_" data-name="&lt;Path&gt;" class="cls-1" d="M4.69,24.7c.1-.56.23-1.32.37-2.07.33-1.78.67-3.57,1-5.35a.53.53,0,0,0-.16-.39c-1-1-2.1-2-3.16-3l-2.15-2a1.63,1.63,0,0,1-.49-1.79A1.65,1.65,0,0,1,1.56,8.87l5.77-.75c.51-.07,1-.15,1.52-.21a.4.4,0,0,0,.36-.28l2.53-5.32c.21-.45.42-.89.64-1.33a1.7,1.7,0,0,1,3.1,0L18.61,7.6a.49.49,0,0,0,.42.33l2.9.38,3.82.5.57.08A1.62,1.62,0,0,1,27.73,10a1.6,1.6,0,0,1-.43,1.78c-1.23,1.19-2.49,2.36-3.73,3.54l-1.67,1.58a.39.39,0,0,0-.13.41c.46,2.4.91,4.8,1.35,7.2a1.66,1.66,0,0,1-.68,1.79,1.69,1.69,0,0,1-1.89.06l-6.4-3.48a.46.46,0,0,0-.51,0L7.37,26.33a1.74,1.74,0,0,1-2,0A1.69,1.69,0,0,1,4.69,24.7Z" transform="translate(0)"/></g></g></g></svg>