<svg xmlns="http://www.w3.org/2000/svg" viewBox="0 0 27.5 27.5"><defs><style>.cls-1{fill:#333;}</style></defs><title>TV</title><g id="Layer_2" data-name="Layer 2"><g id="Layer_1-2" data-name="Layer 1"><g id="_Group_" data-name="&lt;Group&gt;"><path id="_Compound_Path_" data-name="&lt;Compound Path&gt;" class="cls-1" d="M0,24.71Q0,18,0,11.23a1.32,1.32,0,0,0,.06-.17,3.11,3.11,0,0,1,.73-1.5A3.25,3.25,0,0,1,3.37,8.46h8.88L12,8.19,8.93,5.13a2.36,2.36,0,0,1-.28-.32A1,1,0,0,1,9,3.31a1.06,1.06,0,0,1,1.33.27l3.17,3.17.25.24A2.9,2.9,0,0,1,14,6.72L19.95.77a2.7,2.7,0,0,1,1-.77h.43A2.85,2.85,0,0,1,22,.49a1,1,0,0,1-.25,1.44L15.52,8.18a1.38,1.38,0,0,1-.27.17l.08.11h.31c2.85,0,5.69,0,8.54,0a3.2,3.2,0,0,1,3.32,3.17c0,4.24,0,8.49,0,12.73a3.13,3.13,0,0,1-3.12,3.14q-10.62,0-21.24,0A3,3,0,0,1,.33,25.7,7,7,0,0,1,0,24.71ZM10.89,10.53c-1.41.06-3.08.12-4.75.21a5.36,5.36,0,0,0-2,.5A3.29,3.29,0,0,0,2.41,13.8a20,20,0,0,0-.29,4.12,22,22,0,0,0,.29,4.25A3.23,3.23,0,0,0,5.17,25a20.86,20.86,0,0,0,2.87.3c1.88,0,3.76,0,5.64,0A15.33,15.33,0,0,0,17.2,25a3.09,3.09,0,0,0,2.4-2.1A9,9,0,0,0,20,20.27q0-2.29,0-4.59A8.91,8.91,0,0,0,19.61,13,2.89,2.89,0,0,0,18,11.19a6.45,6.45,0,0,0-2.27-.49C14.2,10.62,12.68,10.59,10.89,10.53ZM23.8,13.69a1.65,1.65,0,1,0,1.66,1.65A1.66,1.66,0,0,0,23.8,13.69Zm0,4.23a1.65,1.65,0,1,0,1.67,1.64A1.66,1.66,0,0,0,23.79,17.92Z"/></g></g></g></svg>